<?xml version="1.0" encoding="UTF-8"?>
<svg id="Ebene_1" data-name="Ebene 1" xmlns="http://www.w3.org/2000/svg" viewBox="0 0 154.12 116.26">
  <defs>
    <style>
     
    </style>
  </defs>
  <polygon class="cls-1" points="130.5 97.33 80.7 10.92 87 0 143.25 97.42 130.5 97.33"/>
  <polygon class="cls-1" points="154.12 116.26 121.54 116.26 115.51 105.8 110.53 97.19 101.93 82.28 65.29 82.28 71.35 71.78 87.62 71.8 95.88 71.81 77.06 39.21 70.71 28.21 67.12 22 63.01 29.11 44.95 60.4 25.77 93.62 24.07 96.57 11.42 96.48 56.67 18.1 67.12 0 77.06 17.21 83.41 28.21 108.59 71.82 114.63 82.28 123.29 97.28 128.22 105.82 135.4 105.83 148.11 105.84 154.12 116.26"/>
  <polygon class="cls-1" points="81.05 60.39 64.83 60.4 64.81 60.43 58.27 71.76 52.19 82.28 45.65 93.62 43.86 96.71 38.67 105.71 32.58 116.26 0 116.26 6.11 105.67 18.8 105.68 25.98 105.69 31.21 96.62 32.95 93.62 39.49 82.28 45.58 71.74 52.12 60.41 66.6 35.33 72.95 46.34 81.05 60.39"/>
</svg>